<?xml version="1.0" encoding="utf-8"?>
<!-- Generator: Adobe Illustrator 19.0.0, SVG Export Plug-In . SVG Version: 6.00 Build 0)  -->
<svg version="1.1" id="Layer_1" xmlns:sketch="http://www.bohemiancoding.com/sketch/ns"
	 xmlns="http://www.w3.org/2000/svg" xmlns:xlink="http://www.w3.org/1999/xlink" x="0px" y="0px" width="16px" height="16px"
	 viewBox="-471 273 16 16" style="enable-background:new -471 273 16 16;" xml:space="preserve">
<style type="text/css">
	.st0{fill:#FFFFFF;}
</style>
<title>facebook_logo_footer</title>
<desc>Created with Sketch.</desc>
<g id="Page-1" sketch:type="MSPage">
	
		<g id="_x31_.0-Home_x5F_Page_x5F_V1.0_x5F_REVISED" transform="translate(-211.000000, -966.000000)" sketch:type="MSArtboardGroup">
		<g id="footer" transform="translate(0.000000, 924.000000)" sketch:type="MSLayerGroup">
			<path id="facebook_logo_footer" sketch:type="MSShapeGroup" class="st0" d="M-244.9,315h-14.2c-0.5,0-0.9,0.4-0.9,0.9v14.2
				c0,0.5,0.4,0.9,0.9,0.9h7.7v-6.2h-2.1v-2.4h2.1v-1.8c0-2.1,1.3-3.2,3.1-3.2c0.9,0,1.6,0.1,1.9,0.1v2.2l-1.3,0
				c-1,0-1.2,0.5-1.2,1.2v1.5h2.4l-0.3,2.4h-2.1v6.2h4.1c0.5,0,0.9-0.4,0.9-0.9v-14.2C-244,315.4-244.4,315-244.9,315"/>
		</g>
	</g>
</g>
</svg>
