<?xml version="1.0" encoding="UTF-8" standalone="no"?>
<svg width="27px" height="26px" viewBox="0 0 27 26" version="1.1" xmlns="http://www.w3.org/2000/svg" xmlns:xlink="http://www.w3.org/1999/xlink" xmlns:sketch="http://www.bohemiancoding.com/sketch/ns">
    <!-- Generator: Sketch 3.3.3 (12072) - http://www.bohemiancoding.com/sketch -->
    <title>facebook logo@3x</title>
    <desc>Created with Sketch.</desc>
    <defs></defs>
    <g id="Page-1" stroke="none" stroke-width="1" fill="none" fill-rule="evenodd" sketch:type="MSPage">
        <g id="6.0-Contact_Us" sketch:type="MSArtboardGroup" transform="translate(-675.000000, -563.000000)" fill="#252626">
            <g id="instagram-logo-+-facebook-logo" sketch:type="MSLayerGroup" transform="translate(675.312500, 563.000000)">
                <path d="M24.5650483,0 L1.4349517,0 C0.642367382,0 0,0.642364975 0,1.43494633 L0,24.5649563 C0,25.3574402 0.642367382,26 1.4349517,26 L13.8874684,26 L13.8874684,15.9314112 L10.499112,15.9314112 L10.499112,12.0074711 L13.8874684,12.0074711 L13.8874684,9.11371138 C13.8874684,5.7555668 15.9384849,3.92696004 18.9342511,3.92696004 C20.3693002,3.92696004 21.6025988,4.03372862 21.9619699,4.08146275 L21.9619699,7.59099271 L19.8842612,7.59196688 C18.2550601,7.59196688 17.9395266,8.3661365 17.9395266,9.50220873 L17.9395266,12.0074711 L21.8251965,12.0074711 L21.3193103,15.9314112 L17.9395266,15.9314112 L17.9395266,26 L24.5650483,26 C25.3575352,26 26,25.3574402 26,24.5649563 L26,1.43494633 C26,0.642364975 25.3575352,0 24.5650483,0" id="facebook-logo" sketch:type="MSShapeGroup"></path>
            </g>
        </g>
    </g>
</svg>