<?xml version="1.0" encoding="utf-8"?>
<!-- Generator: Adobe Illustrator 19.0.0, SVG Export Plug-In . SVG Version: 6.00 Build 0)  -->
<svg version="1.1" id="Layer_1" xmlns:sketch="http://www.bohemiancoding.com/sketch/ns"
	 xmlns="http://www.w3.org/2000/svg" xmlns:xlink="http://www.w3.org/1999/xlink" x="0px" y="0px" width="17px" height="16px"
	 viewBox="-471 273 17 16" style="enable-background:new -471 273 17 16;" xml:space="preserve">
<style type="text/css">
	.st0{fill:#FFFFFF;}
</style>
<title>instagram_logo_footer</title>
<desc>Created with Sketch.</desc>
<g id="Page-1" sketch:type="MSPage">
	<g id="_x33_.0-Our_x5F_Distillery" transform="translate(-253.000000, -2233.000000)" sketch:type="MSArtboardGroup">
		<g id="footer" transform="translate(2.000000, 2191.000000)" sketch:type="MSLayerGroup">
			<path id="instagram_logo_footer" sketch:type="MSShapeGroup" class="st0" d="M-205,331H-218c-1.1,0-2-0.8-2-1.8v-12.3
				c0-1,0.9-1.8,2-1.8h13.1c1.1,0,2,0.8,2,1.8v12.3C-203,330.2-203.9,331-205,331L-205,331z M-211.5,319.9c-1.8,0-3.3,1.4-3.3,3.1
				c0,1.7,1.5,3.1,3.3,3.1c1.8,0,3.3-1.4,3.3-3.1C-208.2,321.3-209.7,319.9-211.5,319.9L-211.5,319.9z M-205,317.5
				c0-0.3-0.3-0.6-0.7-0.6h-2c-0.4,0-0.7,0.3-0.7,0.6v1.8c0,0.3,0.3,0.6,0.7,0.6h2c0.4,0,0.7-0.3,0.7-0.6V317.5z M-205,321.8h-1.5
				c0.1,0.4,0.2,0.8,0.2,1.2c0,2.7-2.3,4.9-5.2,4.9c-2.9,0-5.2-2.2-5.2-4.9c0-0.4,0.1-0.8,0.2-1.2h-1.5v6.8c0,0.3,0.3,0.6,0.7,0.6
				h11.8c0.4,0,0.7-0.3,0.7-0.6V321.8z"/>
		</g>
	</g>
</g>
</svg>
