<?xml version="1.0" encoding="UTF-8" standalone="no"?>
<svg width="28px" height="26px" viewBox="0 0 28 26" version="1.1" xmlns="http://www.w3.org/2000/svg" xmlns:xlink="http://www.w3.org/1999/xlink" xmlns:sketch="http://www.bohemiancoding.com/sketch/ns">
    <!-- Generator: Sketch 3.3.3 (12072) - http://www.bohemiancoding.com/sketch -->
    <title>instagram logo@3x</title>
    <desc>Created with Sketch.</desc>
    <defs></defs>
    <g id="Page-1" stroke="none" stroke-width="1" fill="none" fill-rule="evenodd" sketch:type="MSPage">
        <g id="6.0-Contact_Us" sketch:type="MSArtboardGroup" transform="translate(-737.000000, -563.000000)" fill="#252626">
            <g id="instagram-logo-+-facebook-logo" sketch:type="MSLayerGroup" transform="translate(675.312500, 563.000000)">
                <path d="M86.1881665,26 L64.9365895,26 C63.1767291,26 61.75,24.6564952 61.75,22.9989929 L61.75,2.99939925 C61.75,1.34281575 63.1767291,0 64.9365895,0 L86.1881665,0 C87.9482709,0 89.375,1.34281575 89.375,2.99939925 L89.375,22.9989929 C89.375,24.6564952 87.9482709,26 86.1881665,26 L86.1881665,26 Z M75.562378,7.99969963 C72.6278944,7.99969963 70.2496058,10.237879 70.2496058,12.9995406 C70.2496058,15.7607428 72.6278944,18.0000707 75.562378,18.0000707 C78.4963735,18.0000707 80.8751502,15.7607428 80.8751502,12.9995406 C80.8751502,10.237879 78.4963735,7.99969963 75.562378,7.99969963 L75.562378,7.99969963 Z M86.1881665,3.99927557 C86.1881665,3.44731076 85.7122647,2.99939925 85.124587,2.99939925 L81.9377534,2.99939925 C81.3508079,2.99939925 80.8751502,3.44731076 80.8751502,3.99927557 L80.8751502,6.99982331 C80.8751502,7.55178811 81.3508079,7.99969963 81.9377534,7.99969963 L85.124587,7.99969963 C85.7122647,7.99969963 86.1881665,7.55178811 86.1881665,6.99982331 L86.1881665,3.99927557 Z M86.1881665,10.9988692 L83.7832761,10.9988692 C83.9582616,11.6390381 84.0617397,12.3079193 84.0617397,12.9995406 C84.0617397,17.4184748 80.2564779,20.9996996 75.562378,20.9996996 C70.8682781,20.9996996 67.0627722,17.4184748 67.0627722,12.9995406 C67.0627722,12.3079193 67.1667384,11.6390381 67.3417239,10.9988692 L64.9365895,10.9988692 L64.9365895,21.9998056 C64.9365895,22.551311 65.4127353,22.9989929 66.000413,22.9989929 L85.124587,22.9989929 C85.7122647,22.9989929 86.1881665,22.551311 86.1881665,21.9998056 L86.1881665,10.9988692 Z" id="instagram-logo" sketch:type="MSShapeGroup"></path>
            </g>
        </g>
    </g>
</svg>