<?xml version="1.0" encoding="UTF-8" standalone="no"?>
<svg width="38px" height="36px" viewBox="0 0 38 36" version="1.1" xmlns="http://www.w3.org/2000/svg" xmlns:xlink="http://www.w3.org/1999/xlink" xmlns:sketch="http://www.bohemiancoding.com/sketch/ns">
    <!-- Generator: Sketch 3.3 (11970) - http://www.bohemiancoding.com/sketch -->
    <title>instagram_logo_footer</title>
    <desc>Created with Sketch.</desc>
    <defs></defs>
    <g id="Page-1" stroke="none" stroke-width="1" fill="none" fill-rule="evenodd" sketch:type="MSPage">
        <path d="M33.6163021,35.7647059 L4.38336259,35.7647059 C1.96255918,35.7647059 0,33.9166268 0,31.6366237 L0,4.12587056 C0,1.84713127 1.96255918,0 4.38336259,0 L33.6163021,0 C36.0374408,0 38,1.84713127 38,4.12587056 L38,31.6366237 C38,33.9166268 36.0374408,35.7647059 33.6163021,35.7647059 L33.6163021,35.7647059 L33.6163021,35.7647059 Z M18.9998324,11.0041118 C14.9632578,11.0041118 11.6917662,14.0828742 11.6917662,17.881721 C11.6917662,21.6799359 14.9632578,24.7602783 18.9998324,24.7602783 C23.0357364,24.7602783 26.3078985,21.6799359 26.3078985,17.881721 C26.3078985,14.0828742 23.0357364,11.0041118 18.9998324,11.0041118 L18.9998324,11.0041118 L18.9998324,11.0041118 Z M33.6163021,5.50126604 C33.6163021,4.74200212 32.9616672,4.12587056 32.1532775,4.12587056 L27.7695796,4.12587056 C26.9621981,4.12587056 26.3078985,4.74200212 26.3078985,5.50126604 L26.3078985,9.62871628 C26.3078985,10.38798 26.9621981,11.0041118 27.7695796,11.0041118 L32.1532775,11.0041118 C32.9616672,11.0041118 33.6163021,10.38798 33.6163021,9.62871628 L33.6163021,5.50126604 L33.6163021,5.50126604 Z M33.6163021,15.1296662 L30.3082166,15.1296662 C30.5489198,16.0102606 30.6912611,16.9303506 30.6912611,17.881721 C30.6912611,23.9602549 25.4568751,28.8864647 18.9998324,28.8864647 C12.5427896,28.8864647 7.30806612,23.9602549 7.30806612,17.881721 C7.30806612,16.9303506 7.45108024,16.0102606 7.69178341,15.1296662 L4.38336259,15.1296662 L4.38336259,30.262176 C4.38336259,31.020808 5.03833282,31.6366237 5.84672247,31.6366237 L32.1532775,31.6366237 C32.9616672,31.6366237 33.6163021,31.020808 33.6163021,30.262176 L33.6163021,15.1296662 L33.6163021,15.1296662 Z" id="instagram_logo_footer" fill="#FFFFFF" sketch:type="MSShapeGroup"></path>
    </g>
</svg>