<?xml version="1.0" encoding="UTF-8" standalone="no"?>
<svg width="17px" height="16px" viewBox="0 0 17 16" version="1.1" xmlns="http://www.w3.org/2000/svg" xmlns:xlink="http://www.w3.org/1999/xlink" xmlns:sketch="http://www.bohemiancoding.com/sketch/ns">
    <!-- Generator: Sketch 3.3 (11970) - http://www.bohemiancoding.com/sketch -->
    <title>instagram_logo_footer</title>
    <desc>Created with Sketch.</desc>
    <defs></defs>
    <g id="Page-1" stroke="none" stroke-width="1" fill="none" fill-rule="evenodd" sketch:type="MSPage">
        <g id="3.0-Our_Distillery" sketch:type="MSArtboardGroup" transform="translate(-253.000000, -2233.000000)" fill="#252626">
            <g id="footer" sketch:type="MSLayerGroup" transform="translate(2.000000, 2191.000000)">
                <path d="M266.038872,58 L252.960978,58 C251.877987,58 251,57.1732278 251,56.1532264 L251,43.8457842 C251,42.8263482 251.877987,42 252.960978,42 L266.038872,42 C267.122013,42 268,42.8263482 268,43.8457842 L268,56.1532264 C268,57.1732278 267.122013,58 266.038872,58 L266.038872,58 Z M259.499925,46.9228921 C257.694089,46.9228921 256.230527,48.3002332 256.230527,49.9997173 C256.230527,51.6989187 257.694089,53.0769666 259.499925,53.0769666 C261.305461,53.0769666 262.769323,51.6989187 262.769323,49.9997173 C262.769323,48.3002332 261.305461,46.9228921 259.499925,46.9228921 L259.499925,46.9228921 Z M266.038872,44.4610927 C266.038872,44.121422 265.746009,43.8457842 265.384361,43.8457842 L263.423233,43.8457842 C263.062036,43.8457842 262.769323,44.121422 262.769323,44.4610927 L262.769323,46.3075836 C262.769323,46.6472542 263.062036,46.9228921 263.423233,46.9228921 L265.384361,46.9228921 C265.746009,46.9228921 266.038872,46.6472542 266.038872,46.3075836 L266.038872,44.4610927 Z M266.038872,48.7685349 L264.558939,48.7685349 C264.666622,49.162485 264.730301,49.5741042 264.730301,49.9997173 C264.730301,52.7190614 262.388602,54.9228921 259.499925,54.9228921 C256.611248,54.9228921 254.269398,52.7190614 254.269398,49.9997173 C254.269398,49.5741042 254.333378,49.162485 254.441061,48.7685349 L252.960978,48.7685349 L252.960978,55.5383419 C252.960978,55.8777299 253.253991,56.1532264 253.615639,56.1532264 L265.384361,56.1532264 C265.746009,56.1532264 266.038872,55.8777299 266.038872,55.5383419 L266.038872,48.7685349 Z" id="instagram_logo_footer" sketch:type="MSShapeGroup"></path>
            </g>
        </g>
    </g>
</svg>