<?xml version="1.0" encoding="utf-8"?>
<!-- Generator: Adobe Illustrator 16.0.0, SVG Export Plug-In . SVG Version: 6.00 Build 0)  -->
<!DOCTYPE svg PUBLIC "-//W3C//DTD SVG 1.1//EN" "http://www.w3.org/Graphics/SVG/1.1/DTD/svg11.dtd">
<svg version="1.1" id="Layer_1" xmlns="http://www.w3.org/2000/svg" xmlns:xlink="http://www.w3.org/1999/xlink" x="0px" y="0px"
	 width="15.27px" height="15.651px" viewBox="0 0 15.27 15.651" enable-background="new 0 0 15.27 15.651" xml:space="preserve">
<g>
	<path fill="#FFFFFF" d="M4.109,1.933c0,1.049-0.93,1.904-2.07,1.904C0.9,3.837,0,2.981,0,1.933C0,0.883,0.9,0,2.04,0
		C3.18,0,4.109,0.883,4.109,1.933z M0.36,15.651V4.969h3.36v10.683H0.36z M8.699,4.969v0.497c1.29-0.607,3.061-0.497,4.32,0.11
		c1.35,0.69,2.25,2.181,2.25,3.561v6.515h-3.3V9.137c0-0.304-0.301-0.8-0.57-0.883c-1.32-0.69-2.7,0.552-2.7,0.552v6.846h-3.36
		V4.969H8.699z"/>
</g>
</svg>
