<?xml version="1.0" encoding="UTF-8" standalone="no"?>
<svg width="16px" height="16px" viewBox="0 0 16 16" version="1.1" xmlns="http://www.w3.org/2000/svg" xmlns:xlink="http://www.w3.org/1999/xlink" xmlns:sketch="http://www.bohemiancoding.com/sketch/ns">
    <!-- Generator: Sketch 3.3 (11970) - http://www.bohemiancoding.com/sketch -->
    <title>facebook logo 2</title>
    <desc>Created with Sketch.</desc>
    <defs></defs>
    <g id="Page-1" stroke="none" stroke-width="1" fill="none" fill-rule="evenodd" sketch:type="MSPage">
        <g id="5.1-Our_News_Article" sketch:type="MSArtboardGroup" transform="translate(-1153.000000, -151.000000)" fill="#FFFFFF">
            <path d="M1168.11695,151 L1153.88305,151 C1153.3953,151 1153,151.395302 1153,151.883044 L1153,166.116896 C1153,166.604579 1153.3953,167 1153.88305,167 L1161.54613,167 L1161.54613,160.803945 L1159.46099,160.803945 L1159.46099,158.389213 L1161.54613,158.389213 L1161.54613,156.608438 C1161.54613,154.541887 1162.8083,153.416591 1164.65185,153.416591 C1165.53495,153.416591 1166.29391,153.482295 1166.51506,153.511669 L1166.51506,155.67138 L1165.23647,155.67198 C1164.23388,155.67198 1164.03971,156.148392 1164.03971,156.847513 L1164.03971,158.389213 L1166.43089,158.389213 L1166.11958,160.803945 L1164.03971,160.803945 L1164.03971,167 L1168.11695,167 C1168.60464,167 1169,166.604579 1169,166.116896 L1169,151.883044 C1169,151.395302 1168.60464,151 1168.11695,151" id="facebook-logo-2" sketch:type="MSShapeGroup"></path>
        </g>
    </g>
</svg>