<?xml version="1.0" encoding="UTF-8" standalone="no"?><!DOCTYPE svg PUBLIC "-//W3C//DTD SVG 1.1//EN" "http://www.w3.org/Graphics/SVG/1.1/DTD/svg11.dtd"><svg width="69" height="611" viewBox="0 0 69 611" xmlns="http://www.w3.org/2000/svg" xmlns:xlink="http://www.w3.org/1999/xlink"><svg width="27" height="26" viewBox="0 0 27 26" id="facebook_logo_big"><title>facebook logo@3x</title><path d="M24.878 0H1.748C.954 0 .312.642.312 1.435v23.13C.313 25.357.955 26 1.746 26H14.2V15.93h-3.388v-3.923H14.2V9.114c0-3.358 2.05-5.187 5.047-5.187 1.435 0 2.668.107 3.027.154v3.51l-2.077.002c-1.63 0-1.945.774-1.945 1.91v2.505h3.886l-.506 3.924h-3.38V26h6.626c.792 0 1.434-.643 1.434-1.435V1.435C26.313.642 25.67 0 24.878 0" fill="#252626" fill-rule="evenodd"/></svg><svg width="16" height="16" viewBox="0 0 16 16" id="facebook_logo_footer" y="26"><title>facebook_logo_footer</title><path d="M15.117 0H.883C.395 0 0 .395 0 .883v14.234c0 .488.395.883.883.883h7.663V9.804H6.46V7.39h2.086V5.607c0-2.066 1.262-3.19 3.106-3.19.883 0 1.642.064 1.863.094v2.16h-1.28c-1 0-1.195.476-1.195 1.176v1.54h2.39l-.31 2.416h-2.08V16h4.077c.488 0 .883-.395.883-.883V.883C16 .395 15.605 0 15.117 0" fill="#252626" fill-rule="evenodd"/></svg><svg id="facebook_logo_footer_white" width="16" height="16" viewBox="-471 273 16 16" y="42"><style>.cst0{fill:#fff}</style><title>facebook_logo_footer</title><g id="cPage-1"><g id="c_x31_.0-Home_x5F_Page_x5F_V1.0_x5F_REVISED" transform="translate(-211 -966)"><g id="cfooter" transform="translate(0 924)"><path id="cfacebook_logo_footer" class="cst0" d="M-244.9 315h-14.2c-.5 0-.9.4-.9.9v14.2c0 .5.4.9.9.9h7.7v-6.2h-2.1v-2.4h2.1v-1.8c0-2.1 1.3-3.2 3.1-3.2.9 0 1.6.1 1.9.1v2.2h-1.3c-1 0-1.2.5-1.2 1.2v1.5h2.4l-.3 2.4h-2.1v6.2h4.1c.5 0 .9-.4.9-.9v-14.2c-.1-.5-.5-.9-1-.9"/></g></g></g></svg><svg width="28" height="26" viewBox="0 0 28 26" id="instagram_logo_big" y="58"><title>instagram logo@3x</title><path d="M24.5 26H3.25C1.49 26 .06 24.656.06 23V3c0-1.657 1.427-3 3.187-3H24.5c1.76 0 3.188 1.343 3.188 3v20c0 1.656-1.427 3-3.187 3zM13.876 8c-2.935 0-5.313 2.238-5.313 5 0 2.76 2.378 5 5.313 5 2.934 0 5.313-2.24 5.313-5 0-2.762-2.38-5-5.313-5zM24.5 4c0-.553-.475-1-1.063-1H20.25c-.587 0-1.062.447-1.062 1v3c0 .552.475 1 1.062 1h3.187c.588 0 1.064-.448 1.064-1V4zm0 7h-2.404c.175.64.278 1.308.278 2 0 4.418-3.805 8-8.5 8-4.693 0-8.5-3.582-8.5-8 0-.692.105-1.36.28-2H3.25v11c0 .55.475 1 1.063 1h19.124c.588 0 1.064-.45 1.064-1V11z" fill="#252626" fill-rule="evenodd"/></svg><svg width="17" height="16" viewBox="0 0 17 16" id="instagram_logo_footer" y="84"><title>instagram_logo_footer</title><path d="M15.04 16H1.96C.88 16 0 15.173 0 14.153V1.846C0 .826.878 0 1.96 0h13.08C16.12 0 17 .826 17 1.846v12.307c0 1.02-.878 1.847-1.96 1.847zM8.5 4.923C6.694 4.923 5.23 6.3 5.23 8s1.464 3.077 3.27 3.077c1.805 0 3.27-1.378 3.27-3.077 0-1.7-1.465-3.077-3.27-3.077zm6.54-2.462c0-.34-.294-.614-.656-.614h-1.96c-.362 0-.655.275-.655.615V4.31c0 .34.292.615.653.615h1.96c.363 0 .656-.276.656-.615V2.46zm0 4.31h-1.48c.107.392.17.804.17 1.23 0 2.72-2.34 4.923-5.23 4.923-2.89 0-5.23-2.204-5.23-4.923 0-.426.063-.838.17-1.23H1.96v6.768c0 .34.294.615.656.615h11.768c.362 0 .655-.275.655-.615v-6.77z" fill="#252626" fill-rule="evenodd"/></svg><svg id="instagram_logo_footer_white" width="17" height="16" viewBox="-471 273 17 16" y="100"><style>.fst0{fill:#fff}</style><title>instagram_logo_footer</title><g id="fPage-1"><g id="f_x33_.0-Our_x5F_Distillery" transform="translate(-253 -2233)"><g id="ffooter" transform="translate(2 2191)"><path id="finstagram_logo_footer" class="fst0" d="M-205 331h-13c-1.1 0-2-.8-2-1.8v-12.3c0-1 .9-1.8 2-1.8h13.1c1.1 0 2 .8 2 1.8v12.3c-.1 1-1 1.8-2.1 1.8zm-6.5-11.1c-1.8 0-3.3 1.4-3.3 3.1 0 1.7 1.5 3.1 3.3 3.1 1.8 0 3.3-1.4 3.3-3.1 0-1.7-1.5-3.1-3.3-3.1zm6.5-2.4c0-.3-.3-.6-.7-.6h-2c-.4 0-.7.3-.7.6v1.8c0 .3.3.6.7.6h2c.4 0 .7-.3.7-.6v-1.8zm0 4.3h-1.5c.1.4.2.8.2 1.2 0 2.7-2.3 4.9-5.2 4.9-2.9 0-5.2-2.2-5.2-4.9 0-.4.1-.8.2-1.2h-1.5v6.8c0 .3.3.6.7.6h11.8c.4 0 .7-.3.7-.6v-6.8z"/></g></g></g></svg><svg width="38" height="36" viewBox="0 0 38 36" id="instagram_logo_posts" y="116"><title>instagram_logo_footer</title><path d="M33.616 35.765H4.383C1.963 35.765 0 33.917 0 31.637V4.127C0 1.846 1.963 0 4.383 0h29.233C36.036 0 38 1.847 38 4.126v27.51c0 2.28-1.963 4.13-4.384 4.13zM19 11.005c-4.037 0-7.308 3.078-7.308 6.877 0 3.798 3.27 6.878 7.308 6.878 4.036 0 7.308-3.08 7.308-6.878 0-3.8-3.272-6.878-7.308-6.878zM33.616 5.5c0-.758-.654-1.374-1.463-1.374H27.77c-.808 0-1.462.616-1.462 1.375v4.13c0 .758.654 1.374 1.462 1.374h4.383c.81 0 1.463-.616 1.463-1.375V5.5zm0 9.63h-3.308c.24.88.383 1.8.383 2.752 0 6.078-5.233 11.004-11.69 11.004S7.308 23.96 7.308 17.882c0-.952.143-1.872.384-2.752h-3.31v15.132c0 .76.656 1.375 1.465 1.375h26.306c.81 0 1.463-.616 1.463-1.375V15.13z" fill="#FFF" fill-rule="evenodd"/></svg><svg width="15.27" height="15.651" viewBox="0 0 15.27 15.651" id="linkedin" y="152"><path fill="#FFF" d="M4.11 1.933c0 1.05-.93 1.904-2.07 1.904C.9 3.837 0 2.98 0 1.933 0 .883.9 0 2.04 0c1.14 0 2.07.883 2.07 1.933zM.36 15.65V4.97h3.36V15.65H.36zM8.7 4.97v.496c1.29-.607 3.06-.497 4.32.11 1.35.69 2.25 2.18 2.25 3.56v6.516h-3.3V9.137c0-.304-.302-.8-.57-.883-1.32-.69-2.7.552-2.7.552v6.846H5.34V4.97H8.7z"/></svg><svg width="10" height="15" viewBox="0 0 10 15" id="post-arrow-left" y="168"><title>arrow 3</title><path d="M4.718 7.596l4.95-4.95L7.545.526l-7.07 7.07 1.068 1.07 6.02 6.02 2.12-2.122L4.72 7.596z" fill="#FFF" fill-rule="evenodd"/></svg><svg width="16" height="16" viewBox="0 0 16 16" id="post-facebook-share" y="183"><title>facebook logo 2</title><path d="M15.117 0H.883C.395 0 0 .395 0 .883v14.234c0 .488.395.883.883.883h7.663V9.804H6.46V7.39h2.086V5.607c0-2.066 1.262-3.19 3.106-3.19.883 0 1.642.064 1.863.094v2.16h-1.28c-1 0-1.195.476-1.195 1.176v1.54h2.39l-.31 2.416h-2.08V16h4.077c.488 0 .883-.395.883-.883V.883C16 .395 15.605 0 15.117 0" fill="#FFF" fill-rule="evenodd"/></svg><svg width="69" height="101" viewBox="0 0 69 101" id="slider-arrow-left" y="199"><title>slider-arrow-left</title><defs><filter x="-50%" y="-50%" width="200%" height="200%" filterUnits="objectBoundingBox" id="ka"><feOffset dy="1" in="SourceAlpha" result="shadowOffsetOuter1"/><feGaussianBlur stdDeviation="10" in="shadowOffsetOuter1" result="shadowBlurOuter1"/><feColorMatrix values="0 0 0 0 0 0 0 0 0 0 0 0 0 0 0 0 0 0 0.35 0" in="shadowBlurOuter1" result="shadowMatrixOuter1"/><feMerge><feMergeNode in="shadowMatrixOuter1"/><feMergeNode in="SourceGraphic"/></feMerge></filter></defs><path d="M38.01 35.272L4.182.855.788 4.308l30.434 30.964L.76 66.265l3.394 3.454L38.01 35.27z" transform="rotate(-180 27 43.5)" filter="url(#ka)" fill="#FFF" fill-rule="evenodd"/></svg><svg width="50" height="65" viewBox="0 0 50 65" id="slider-arrow-left-mobile" y="300"><title>slider-arrow-left-mobile</title><defs><filter x="-50%" y="-50%" width="200%" height="200%" filterUnits="objectBoundingBox" id="la"><feOffset dy="1" in="SourceAlpha" result="shadowOffsetOuter1"/><feGaussianBlur stdDeviation="10" in="shadowOffsetOuter1" result="shadowBlurOuter1"/><feColorMatrix values="0 0 0 0 0 0 0 0 0 0 0 0 0 0 0 0 0 0 0.35 0" in="shadowBlurOuter1" result="shadowMatrixOuter1"/><feMerge><feMergeNode in="shadowMatrixOuter1"/><feMergeNode in="SourceGraphic"/></feMerge></filter></defs><path d="M19.022 17.652L2.092.428.395 2.156l15.23 15.496L.38 33.162l1.7 1.73L19.02 17.65z" transform="rotate(-180 17.76 25.516)" stroke="#FFF" filter="url(#la)" fill="#FFF" fill-rule="evenodd"/></svg><svg width="69" height="101" viewBox="0 0 69 101" id="slider-arrow-right" y="365"><title>slider-arrow-right</title><defs><filter x="-50%" y="-50%" width="200%" height="200%" filterUnits="objectBoundingBox" id="ma"><feOffset dy="1" in="SourceAlpha" result="shadowOffsetOuter1"/><feGaussianBlur stdDeviation="10" in="shadowOffsetOuter1" result="shadowBlurOuter1"/><feColorMatrix values="0 0 0 0 0 0 0 0 0 0 0 0 0 0 0 0 0 0 0.35 0" in="shadowBlurOuter1" result="shadowMatrixOuter1"/><feMerge><feMergeNode in="shadowMatrixOuter1"/><feMergeNode in="SourceGraphic"/></feMerge></filter></defs><path d="M38.01 35.272L4.182.855.788 4.308l30.434 30.964L.76 66.265l3.394 3.454L38.01 35.27z" transform="translate(15 14)" filter="url(#ma)" fill="#FFF" fill-rule="evenodd"/></svg><svg width="50" height="64" viewBox="0 0 50 64" id="slider-arrow-right-mobile" y="466"><title>slider-arrow-right-mobile</title><defs><filter x="-50%" y="-50%" width="200%" height="200%" filterUnits="objectBoundingBox" id="na"><feOffset dy="1" in="SourceAlpha" result="shadowOffsetOuter1"/><feGaussianBlur stdDeviation="10" in="shadowOffsetOuter1" result="shadowBlurOuter1"/><feColorMatrix values="0 0 0 0 0 0 0 0 0 0 0 0 0 0 0 0 0 0 0.35 0" in="shadowBlurOuter1" result="shadowMatrixOuter1"/><feMerge><feMergeNode in="shadowMatrixOuter1"/><feMergeNode in="SourceGraphic"/></feMerge></filter></defs><path d="M19.022 17.652L2.092.428.395 2.156l15.23 15.496L.38 33.162l1.7 1.73L19.02 17.65z" transform="translate(14.465 13.25)" stroke="#FFF" filter="url(#na)" fill="#FFF" fill-rule="evenodd"/></svg><svg preserveAspectRatio="xMidYMid" width="10" height="10" viewBox="0 0 10 10" id="slider-dot" y="530"><defs><style>.ocls-2{stroke:#959595;stroke-width:1px;fill:none}</style></defs><circle id="ocircle-1" class="ocls-2" cx="5" cy="5" r="5"/></svg><svg preserveAspectRatio="xMidYMid" width="10" height="10" viewBox="0 0 10 10" id="slider-dot-current" y="540"><defs><style>.pcls-2{fill:#000;stroke:#000;stroke-width:1px;opacity:.65}</style></defs><circle id="pcircle-1" class="pcls-2" cx="5" cy="5" r="5"/></svg><svg width="40" height="40" viewBox="0 0 40 40" id="x_close_desktop" y="550"><title>x_close_desktop</title><g stroke-linecap="square" stroke="#979797" fill="none" fill-rule="evenodd"><path d="M39.5.5L.61 39.438M.5.5l38.89 38.937"/></g></svg><svg width="21" height="21" viewBox="0 0 21 21" id="x_close_mobile" y="590"><title>x_close_mobile</title><g transform="translate(.5 .5)" stroke-linecap="square" stroke="#979797" fill="none" fill-rule="evenodd"><path d="M19.75.25L.305 19.695M.25.25l19.445 19.445"/></g></svg></svg>